<mxfile host="app.diagrams.net" modified="2020-10-22T06:36:27.308Z" agent="5.0 (X11; Linux x86_64) AppleWebKit/537.36 (KHTML, like Gecko) Chrome/86.0.4240.111 Safari/537.36" etag="C0k_0Leblx9yoTuzF5k6" version="13.8.1" type="github">
  <diagram id="Fk8Qw_PRhQIqax9wI1sP" name="Page-1">
    <mxGraphModel dx="1422" dy="738" grid="1" gridSize="10" guides="1" tooltips="1" connect="1" arrows="1" fold="1" page="0" pageScale="1" pageWidth="827" pageHeight="1169" math="0" shadow="0">
      <root>
        <mxCell id="0" />
        <mxCell id="1" parent="0" />
        <mxCell id="IjlxAXL79CjIECGT4DLs-1" value="&lt;b&gt;ReplicaSet&lt;/b&gt;" style="shape=process;whiteSpace=wrap;html=1;backgroundOutline=1;strokeWidth=3;fillColor=#d5e8d4;strokeColor=#82b366;" vertex="1" parent="1">
          <mxGeometry x="80" y="340" width="140" height="70" as="geometry" />
        </mxCell>
        <mxCell id="IjlxAXL79CjIECGT4DLs-3" value="&lt;b&gt;pod&lt;/b&gt;" style="shape=cube;whiteSpace=wrap;html=1;boundedLbl=1;backgroundOutline=1;darkOpacity=0.05;darkOpacity2=0.1;strokeWidth=2;" vertex="1" parent="1">
          <mxGeometry x="100" y="450" width="120" height="80" as="geometry" />
        </mxCell>
        <mxCell id="IjlxAXL79CjIECGT4DLs-4" value="&lt;b&gt;HPA&lt;/b&gt;" style="shape=tape;whiteSpace=wrap;html=1;strokeWidth=2;fillColor=#e1d5e7;strokeColor=#9673a6;" vertex="1" parent="1">
          <mxGeometry x="90" y="200" width="120" height="100" as="geometry" />
        </mxCell>
      </root>
    </mxGraphModel>
  </diagram>
</mxfile>
